<svg width="38" height="38" viewBox="0 0 38 38" fill="none" xmlns="http://www.w3.org/2000/svg">
  <path
    fill-rule="evenodd"
    clip-rule="evenodd"
    d="M35.0313 12.9806C34.4703 13.5205 33.6769 13.767 32.7982 13.8263C32.7772 13.8277 32.7563 13.8291 32.7355 13.8306C35.8746 15.1377 37.3745 18.2053 37.6879 20.7641C37.8811 22.3424 37.6648 24.0109 36.8436 25.0494C36.3983 25.6124 35.7406 26.0195 34.914 26.0053C34.1355 25.9919 33.3995 25.6066 32.7351 25.0284C32.4893 24.8145 32.2465 24.6113 32.0066 24.4183C33.724 27.7943 32.5186 31.3301 30.7837 33.4805C29.7853 34.718 28.437 35.7243 27.1198 35.8578C26.4057 35.9302 25.6555 35.7415 25.0902 35.1382C24.5578 34.5701 24.322 33.7734 24.2745 32.894C24.273 32.8666 24.2715 32.8392 24.27 32.8119C22.9038 35.8807 19.8459 37.3179 17.3041 37.5946C15.7234 37.7667 14.058 37.528 13.0306 36.693C12.4736 36.2402 12.0753 35.5771 12.1006 34.7507C12.1244 33.9725 12.5196 33.2417 13.1067 32.5851C13.1279 32.5614 13.149 32.5377 13.17 32.514C10.1057 33.6427 6.99744 32.5458 5.02466 30.9974C3.77388 30.0157 2.74953 28.6809 2.59842 27.3657C2.51648 26.6525 2.69508 25.8999 3.29074 25.3266C3.8517 24.7867 4.64512 24.5402 5.52385 24.4809C5.55109 24.4791 5.57827 24.4772 5.60538 24.4753C2.51904 23.1502 1.04117 20.1121 0.730446 17.5745C0.537199 15.9962 0.753497 14.3277 1.57471 13.2893C2.01997 12.7262 2.67767 12.3191 3.5043 12.3333C4.28278 12.3467 5.01883 12.732 5.68321 13.3102C5.83611 13.4433 5.98784 13.5722 6.13842 13.6971C4.61409 10.4026 5.80138 6.99519 7.49066 4.90132C8.48906 3.66381 9.83738 2.65744 11.1546 2.52397C11.8687 2.45161 12.6189 2.64028 13.1842 3.24357C13.7165 3.81171 13.9524 4.60836 13.9999 5.48781C14.0014 5.51522 14.0029 5.54258 14.0044 5.56986C15.3706 2.5011 18.4285 1.0639 20.9703 0.787201C22.5509 0.615125 24.2164 0.853768 25.2438 1.68883C25.8008 2.1416 26.1991 2.80469 26.1738 3.63106C26.1501 4.40387 25.7603 5.12993 25.18 5.78295C28.2352 4.67115 31.3306 5.76612 33.2974 7.30981C34.5481 8.29153 35.5725 9.62624 35.7236 10.9415C35.8055 11.6546 35.6269 12.4073 35.0313 12.9806ZM18.4047 16.3019C18.7309 13.269 19.3271 9.14821 23.5873 4.38357C23.9953 3.92722 24.052 3.65564 24.0547 3.5662C24.056 3.5249 24.0555 3.45509 23.9065 3.33397C23.5218 3.02127 22.546 2.74826 21.1997 2.89481C18.5872 3.17921 15.6714 4.89746 15.4223 8.62604C15.3275 10.0445 15.8463 11.7272 16.744 13.5007C17.2268 14.4548 17.8014 15.4006 18.4047 16.3019ZM16.6228 17.7033C14.7134 15.3245 12.2275 11.9843 11.8829 5.60214C11.8499 4.99087 11.6983 4.75848 11.6372 4.69318C11.6089 4.66304 11.5593 4.61388 11.3683 4.63324C10.875 4.68322 9.99102 5.17853 9.14069 6.23252C7.49058 8.27782 6.63761 11.553 9.0926 14.3703C10.0265 15.4421 11.5817 16.268 13.4693 16.8909C14.4848 17.226 15.5594 17.4906 16.6228 17.7033ZM16.2781 19.9318C15.3851 20.5472 14.447 21.1343 13.4995 21.63C11.7382 22.5513 10.0625 23.0927 8.64295 23.0169C4.91137 22.8177 3.15419 19.9253 2.83479 17.3168C2.6702 15.9726 2.93011 14.9932 3.23763 14.6043C3.35674 14.4537 3.42654 14.4523 3.46785 14.453C3.55732 14.4546 3.82965 14.5076 4.29141 14.9094C9.11273 19.1054 13.2412 19.6463 16.2781 19.9318ZM17.7031 21.6944C15.3501 23.6355 12.0435 26.166 5.66653 26.5962C5.05578 26.6374 4.82543 26.792 4.76096 26.8541C4.7312 26.8827 4.68271 26.9329 4.70462 27.1237C4.76121 27.6162 5.26833 28.4935 6.33362 29.3297C8.40086 30.9522 11.6871 31.7612 14.4713 29.2687C15.5304 28.3205 16.3355 26.7543 16.9331 24.8585C17.2545 23.8387 17.5047 22.7606 17.7031 21.6944ZM19.8697 22.0799C20.473 22.9811 21.0476 23.927 21.5304 24.881C22.4281 26.6546 22.9469 28.3373 22.8521 29.7557C22.603 33.4843 19.6872 35.2026 17.0747 35.487C15.7284 35.6335 14.7526 35.3605 14.3679 35.0478C14.2189 34.9267 14.2184 34.8569 14.2197 34.8156C14.2224 34.7261 14.2791 34.4546 14.6871 33.9982C18.9473 29.2336 19.5435 25.1128 19.8697 22.0799ZM21.6516 20.6785C23.561 23.0573 26.0469 26.3975 26.3915 32.7796C26.4245 33.3909 26.5761 33.6233 26.6372 33.6886C26.6655 33.7187 26.7151 33.7679 26.9061 33.7485C27.3993 33.6986 28.2834 33.2033 29.1337 32.1493C30.7838 30.104 31.6368 26.8288 29.1818 24.0115C28.2479 22.9397 26.6927 22.1138 24.805 21.4908C23.7896 21.1558 22.715 20.8912 21.6516 20.6785ZM22.1402 18.4068C23.0332 17.7914 23.9713 17.2043 24.9188 16.7086C26.6801 15.7873 28.3558 15.246 29.7754 15.3217C33.5069 15.5209 35.2641 18.4133 35.5835 21.0218C35.7481 22.366 35.4882 23.3454 35.1807 23.7343C35.0616 23.8849 34.9918 23.8863 34.9505 23.8856C34.861 23.884 34.5887 23.831 34.1269 23.4291C29.3056 19.2332 25.1771 18.6923 22.1402 18.4068ZM20.6189 16.6128C22.972 14.6717 26.2785 12.1412 32.6555 11.711C33.2663 11.6698 33.4966 11.5152 33.5611 11.4531C33.5908 11.4245 33.6393 11.3743 33.6174 11.1835C33.5608 10.691 33.0537 9.81366 31.9884 8.97753C29.9212 7.35499 26.6349 6.54599 23.8507 9.03853C22.7916 9.98673 21.9865 11.5529 21.389 13.4487C21.0675 14.4685 20.8174 15.5465 20.6189 16.6128Z"
    fill="#6A6A6A"
  />
</svg> 